<?xml version="1.0" encoding="utf-8"?>
<svg version="1.1" id="Capa_1" xmlns="http://www.w3.org/2000/svg" xmlns:xlink="http://www.w3.org/1999/xlink" x="0px" y="0px"
	 viewBox="0 0 56.7 56.7" style="enable-background:new 0 0 56.7 56.7;" xml:space="preserve">
<style type="text/css">
	.st0{fill-rule:evenodd;clip-rule:evenodd;fill:#16569D;}
</style>
<g id="Ilusiones_2_">
	<g>
		<g id="Ilusiones_11_">
			<g>
				<path class="st0" d="M24.9,20.9c0.4,5,0.8,10,1.1,15c0,0.7,0.3,1,0.9,1.2c1.8,0.6,3.6,1.2,5.5,1.6c0.7,0.1,0.9,0,0.9-0.7
					c0.4-5.5,0.7-11.1,1.1-16.6c0.2-3.3,0.5-6.6,0.8-9.9c0.2-3.1,0.4-6.2,0.7-9.3C36,1.3,35.7,1,34.8,1c-1.7,0.1-3.5,0-5.2,0
					c-1.8,0-3.5,0-5.3,0c-0.9,0-1.1,0.3-1,1.1C23.9,8.4,24.4,14.6,24.9,20.9z M23,41.2c6.4,2.8,13,4.2,20,3.1
					c8.2-1.3,12.1-7.1,9.9-14.6c-0.5-1.8-1.3-3.5-2.6-5c0.2,0.9,0.6,1.8,0.8,2.7c1.5,5.1-0.6,9.5-5.5,11.7c-2.3,1.1-4.8,1.5-7.3,1.5
					c-8.7-0.1-16.3-3.1-22.9-8.5c-3.7-3-6.7-6.5-8.1-11.1c-1.1-3.6-0.7-6.9,2-9.7c1.6-1.6,3.6-2.5,5.7-3.2c-2-0.1-3.9,0.5-5.7,1.4
					c-4.3,2-6.5,5.6-6.2,10.2c0.2,2.9,1.3,5.4,2.9,7.8C10.1,33.9,16.1,38.1,23,41.2z M37.5,39.1c1.1,0,2.1-0.2,3.2-0.2
					c1.4-0.1,2-0.7,2.2-2c1-4.9,2.1-9.8,3.1-14.7c0.4-1.9,0.8-3.8,1.3-5.7c0.2-0.9-0.1-1.3-1-1.2c-1.2,0.1-2.3,0-3.5,0
					c-1.1,0-2.2,0.1-3.2,0c-1.3-0.1-1.7,0.4-1.8,1.6c-0.2,3.1-0.5,6.2-0.8,9.4c-0.3,3.8-0.6,7.7-0.9,11.5
					C36,38.9,36.5,39.1,37.5,39.1z M12.3,13.7c1.2,5.5,2.3,10.9,3.5,16.4c0.1,0.3,0.2,0.6,0.4,0.8c2.2,1.9,4.6,3.3,7.3,4.7
					c-0.8-7.5-1.5-14.8-2.2-22c-0.1-0.7-0.4-0.8-1-0.8c-2.4,0-4.9,0-7.3,0C12.3,12.8,12.1,12.8,12.3,13.7z M47.8,48.8
					c-1.5-0.9-3.6-0.5-4.7,0.8c-1.1,1.4-0.9,3.6,0.4,4.7c1.3,1.1,3.5,1.1,4.7-0.1c0.3-0.3,1.2-0.6,0.5-1.3c-0.5-0.5-0.9-0.4-1.5,0.2
					c-1.2,1.2-2.7,0.6-3.2-1.3c1.2,0,2.3,0,3.4,0c0.5,0,1.3,0.3,1.5-0.2c0.3-0.6,0.1-1.4-0.3-1.9C48.5,49.4,48.1,49,47.8,48.8z
					 M44.3,50.9c0.1-1,0.7-1.2,1.6-1.3c0.8,0,1.5,0.2,1.7,1.3H44.3z M29.6,48.3c-2,0-3.6,1.5-3.6,3.4c0,1.9,1.6,3.5,3.5,3.5
					c2,0,3.6-1.5,3.6-3.4C33.1,49.9,31.6,48.4,29.6,48.3z M29.6,53.8c-1.1,0-2-0.9-2.1-2c0-1.1,0.9-2.1,1.9-2.1c1.1,0,2,0.8,2,2
					C31.5,52.9,30.7,53.8,29.6,53.8z M14.1,48.5c-0.7,0-0.9,0.3-0.8,0.9c0,0.8,0,1.5,0,2.3c0,1.1-0.1,2-1.6,2c-1.5,0-1.7-0.9-1.6-2
					c0-0.3,0-0.6,0-1c0-0.5,0-1.1,0-1.6c0-0.6-0.3-0.7-0.8-0.7c-0.4,0-0.9,0-0.8,0.6c0.1,1.4-0.2,2.8,0.3,4.2
					c0.4,1.3,1.4,1.9,3.1,1.8c1.6,0,2.5-0.6,2.9-1.9c0.4-1.2,0.2-2.5,0.2-3.8C14.9,48.9,14.9,48.5,14.1,48.5z M40.9,51
					c0-2.2-1.6-3.3-3.7-2.4c-0.5,0.2-0.8,0.6-1.5,0c-0.4-0.3-1.2-0.2-1.1,0.8c0.1,0.8,0,1.5,0,2.3c0,0.8,0,1.5,0,2.3
					c0,0.6,0.1,0.9,0.8,0.9c0.7,0,0.7-0.4,0.7-0.9c0-1,0-1.9,0-2.9c0.1-1,0.7-1.5,1.8-1.5c1.1,0,1.3,0.6,1.4,1.5c0,1,0.1,2,0.1,3
					c0,0.6,0.2,0.8,0.8,0.8c0.7,0,0.8-0.3,0.7-0.8C40.9,53.1,41,52,40.9,51z M20.2,51.5c-0.6-0.3-1.2-0.5-1.8-0.8
					c-0.3-0.1-0.6-0.4-0.4-0.8c0.1-0.3,0.4-0.5,0.8-0.5c0.3,0,0.6,0.1,0.8,0.2c0.6,0.5,1,0.1,1.2-0.3c0.2-0.5-0.4-0.6-0.7-0.8
					c-0.4-0.2-0.8-0.3-1.6-0.2c-0.7,0-1.7,0.3-2,1.4C16.1,51,17,51.6,18,52c0.3,0.2,0.7,0.3,1,0.4c0.4,0.2,0.9,0.5,0.7,1
					c-0.2,0.6-0.8,0.6-1.3,0.5c-0.4-0.1-0.7-0.3-0.9-0.6c-0.4-0.6-0.7,0-1,0.2c-0.5,0.3-0.1,0.6,0.1,0.9c1,0.9,2.2,0.9,3.4,0.5
					c0.8-0.3,1.3-0.9,1.4-1.7C21.4,52.4,20.9,51.9,20.2,51.5z M1.9,45C1.2,45,1,45.3,1,45.9c0,2.7,0,5.4,0,8.2
					c0,0.7,0.2,0.9,0.9,0.9c0.7,0,0.9-0.3,0.9-0.9c0-1.4,0-2.7,0-4.1h0c0-1.4,0-2.7,0-4.1C2.8,45.2,2.5,45.1,1.9,45z M53.4,51.2
					c-0.4-0.2-0.8-0.3-1.1-0.5c-0.3-0.1-0.4-0.4-0.3-0.7c0.1-0.3,0.4-0.4,0.6-0.5c0.4-0.1,0.7,0,1,0.3c0.6,0.4,0.9,0,1.1-0.4
					c0.3-0.4-0.2-0.6-0.5-0.8c-0.7-0.4-1.5-0.4-2.3-0.2c-0.8,0.2-1.4,0.7-1.5,1.6c-0.1,0.8,0.3,1.4,1,1.8c0.6,0.3,1.2,0.5,1.8,0.8
					c0.3,0.2,0.6,0.5,0.5,0.9c-0.1,0.4-0.5,0.6-0.9,0.6c-0.5,0-1-0.1-1.2-0.5c-0.5-0.7-1-0.2-1.2,0.1c-0.4,0.4,0.1,0.7,0.4,1
					c0.6,0.5,1.2,0.6,2,0.6c1.4,0,2.4-0.6,2.6-1.6C55.4,52.2,54.5,51.6,53.4,51.2z M5.7,44.5c-0.7,0-0.8,0.3-0.8,0.8
					c0,2.9,0,5.8,0,8.7c0,0.5,0,0.9,0.7,0.9c0.7,0,0.8-0.3,0.8-0.9c0-1.4,0-2.8,0-4.2c0-1.5,0-3,0-4.5C6.5,44.7,6.3,44.5,5.7,44.5z
					 M23.7,48.6c-0.5,0-0.9,0-0.9,0.7c0,0.8,0,1.6,0,2.4c0,0.8,0,1.6,0,2.4c0,0.6,0.2,0.8,0.8,0.8c0.6,0,0.8-0.1,0.8-0.8
					c0-1.6,0-3.3,0-4.9C24.4,48.8,24.2,48.5,23.7,48.6z M23.6,45c-0.6,0-1,0.3-0.9,0.9c0,0.5,0.3,0.8,0.9,0.8c0.6,0,0.9-0.4,0.9-1
					C24.4,45.2,24.1,45,23.6,45z"/>
			</g>
		</g>
	</g>
</g>
</svg>
